<svg width="182" height="177" viewBox="0 0 182 177" fill="none" xmlns="http://www.w3.org/2000/svg">
<path d="M21.1917 136.155H27.8466L17.3859 166.809H11.3341L0.97744 136.155H7.81952L14.4744 159.427L21.1917 136.155ZM54.3207 141.583H38.0993V148.092H52.9897V153.416H38.0993V161.298H55.0694V166.809H31.8396V136.155H54.3207V141.583ZM66.4659 141.479V149.715H73.7239C75.1658 149.715 76.2472 149.548 76.9682 149.215C78.2437 148.633 78.8815 147.482 78.8815 145.763C78.8815 143.905 78.2645 142.658 77.0306 142.02C76.3373 141.659 75.2975 141.479 73.9111 141.479H66.4659ZM75.242 136.155C77.391 136.197 79.0409 136.46 80.1916 136.945C81.3562 137.431 82.3406 138.145 83.1448 139.087C83.8102 139.864 84.3371 140.723 84.7253 141.666C85.1135 142.609 85.3076 143.684 85.3076 144.89C85.3076 146.345 84.9402 147.78 84.2054 149.195C83.4706 150.595 82.2574 151.586 80.566 152.169C81.9801 152.737 82.9784 153.548 83.5607 154.602C84.1569 155.642 84.4549 157.236 84.4549 159.385V161.444C84.4549 162.844 84.5104 163.794 84.6213 164.293C84.7877 165.083 85.1759 165.666 85.7859 166.04V166.809H78.7359C78.5418 166.13 78.4031 165.582 78.3199 165.166C78.1536 164.307 78.0635 163.426 78.0496 162.525L78.008 159.676C77.9803 157.721 77.6198 156.418 76.9266 155.766C76.2472 155.115 74.9648 154.789 73.0792 154.789H66.4659V166.809H60.2061V136.155H75.242ZM96.7041 166.809H90.3404V136.155H96.7041V166.809ZM124.967 136.155V141.583H115.795V166.809H109.348V141.583H100.136V136.155H124.967ZM133.951 155.226H141.729L137.902 143.164L133.951 155.226ZM134.346 136.155H141.583L152.439 166.809H145.493L143.517 160.508H132.225L130.103 166.809H123.407L134.346 136.155ZM160.986 157.347C161.18 158.747 161.562 159.794 162.13 160.487C163.17 161.749 164.952 162.38 167.475 162.38C168.986 162.38 170.213 162.213 171.156 161.881C172.944 161.243 173.839 160.057 173.839 158.324C173.839 157.312 173.395 156.529 172.508 155.974C171.62 155.434 170.227 154.955 168.328 154.539L165.083 153.811C161.894 153.091 159.69 152.307 158.47 151.461C156.404 150.047 155.371 147.836 155.371 144.827C155.371 142.082 156.37 139.801 158.366 137.985C160.362 136.169 163.295 135.261 167.163 135.261C170.393 135.261 173.145 136.12 175.419 137.84C177.707 139.545 178.906 142.027 179.017 145.285H172.861C172.75 143.441 171.946 142.131 170.449 141.354C169.451 140.841 168.21 140.585 166.726 140.585C165.076 140.585 163.759 140.918 162.775 141.583C161.791 142.249 161.298 143.177 161.298 144.37C161.298 145.465 161.784 146.283 162.754 146.824C163.378 147.184 164.709 147.607 166.747 148.092L172.029 149.361C174.345 149.916 176.092 150.657 177.27 151.586C179.1 153.028 180.015 155.115 180.015 157.846C180.015 160.647 178.941 162.976 176.792 164.834C174.657 166.678 171.634 167.6 167.724 167.6C163.732 167.6 160.591 166.691 158.304 164.875C156.016 163.045 154.872 160.536 154.872 157.347H160.986Z" fill="#F1F4F6"/>
<path d="M156.864 118.913H0L6.27456 109.525H163.139L156.864 118.913Z" fill="#F1F4F6"/>
<path d="M147.546 103.266H22.0551L28.3297 93.8783H153.821L147.546 103.266Z" fill="#F1F4F6"/>
<path d="M138.04 87.6199H43.9219L50.1965 78.2321H144.315L138.04 87.6199Z" fill="#F1F4F6"/>
<path d="M128.641 71.9735H65.8955L72.17 62.5857H134.916L128.641 71.9735Z" fill="#F1F4F6"/>
<path d="M25.1359 0H182L175.725 9.38784H18.8613L25.1359 0Z" fill="#F1F4F6"/>
<path d="M34.4537 15.6464H159.945L153.67 25.0342H28.1791L34.4537 15.6464Z" fill="#F1F4F6"/>
<path d="M43.9597 31.2928H138.078L131.804 40.6806H37.6851L43.9597 31.2928Z" fill="#F1F4F6"/>
<path d="M53.3589 46.9391H116.105L109.83 56.327H47.0844L53.3589 46.9391Z" fill="#F1F4F6"/>
</svg>
